<?xml version="1.0" encoding="UTF-8"?>
<!-- Generated by jsxcad -->
<!DOCTYPE svg PUBLIC "-//W3C//DTD SVG 1.1 Tiny//EN" "http://www.w3.org/Graphics/SVG/1.1/DTD/svg11-tiny.dtd">
<svg baseProfile="tiny" height="14.86765mm" width="12.98447mm" viewBox="-0.00000 2.01143 12.98447 14.86765" version="1.1" stroke="black" stroke-width=".1" fill="none" xmlns="http://www.w3.org/2000/svg">
<path fill="#000000" stroke="#000000" d="M12.80142 9.05847 L12.75375 9.13718 L12.65023 9.17128 L12.54007 9.16899 L12.43014 9.18025 L12.32125 9.20475 L12.21423 9.24217 L12.09592 9.32361 L11.99958 9.42927 L11.92728 9.55357 L11.88106 9.69095 L11.86296 9.83476 L11.87404 9.97813 L11.91487 10.11516 L11.98602 10.23993 L12.06617 10.31999 L12.15358 10.38941 L12.24767 10.44743 L12.34785 10.49331 L12.42629 10.56887 L12.43686 10.68035 L12.43442 10.68814 L12.33508 10.91522 L12.26603 10.97663 L12.15705 10.97868 L12.05247 10.94401 L11.94411 10.92234 L11.83283 10.91364 L11.71953 10.91783 L11.58247 10.96075 L11.45926 11.03329 L11.35351 11.13074 L11.26883 11.24838 L11.20912 11.38046 L11.17742 11.52072 L11.17602 11.66369 L11.20720 11.80390 L11.26018 11.90404 L11.32323 11.99614 L11.39602 12.07933 L11.47821 12.15272 L11.53088 12.24806 L11.51201 12.33885 L11.37266 12.52853 L11.36504 12.53680 L11.26368 12.58315 L11.15891 12.55313 L11.06911 12.48929 L10.97187 12.43678 L10.86806 12.39580 L10.75852 12.36655 L10.61489 12.36735 L10.47582 12.40054 L10.34612 12.46265 L10.23064 12.55026 L10.13480 12.65899 L10.06333 12.78378 L10.02003 12.92004 L10.00869 13.06322 L10.02994 13.17450 L10.06318 13.28105 L10.10834 13.38194 L10.16538 13.47623 L10.18774 13.58282 L10.14367 13.66297 L9.92167 13.81698 L9.82667 13.82937 L9.73540 13.76979 L9.66841 13.68232 L9.59098 13.60347 L9.50386 13.53371 L9.40781 13.47347 L9.27032 13.43189 L9.12765 13.42260 L8.98541 13.44373 L8.84923 13.49339 L8.72560 13.56905 L8.62052 13.66721 L8.53897 13.78466 L8.48592 13.91813 L8.47342 14.03073 L8.47377 14.14235 L8.48719 14.25207 L8.51390 14.35898 L8.50384 14.46742 L8.42838 14.54042 L8.17291 14.61272 L8.08331 14.59734 L8.01370 14.51347 L7.97552 14.41011 L7.92482 14.31192 L7.86218 14.21955 L7.78819 14.13364 L7.66911 14.05333 L7.53554 14.00233 L7.39340 13.98052 L7.24864 13.98776 L7.10818 14.02354 L6.97880 14.08631 L6.86621 14.17444 L6.77612 14.28631 L6.73094 14.39020 L6.69832 14.49694 L6.67874 14.60573 L6.67270 14.71576 L6.63107 14.81640 L6.54246 14.86131 L6.41176 14.86857 L6.28108 14.86131 L6.19261 14.81643 L6.15083 14.71576 L6.14484 14.60574 L6.12536 14.49696 L6.09276 14.39022 L6.04741 14.28631 L5.95732 14.17444 L5.84473 14.08631 L5.71535 14.02354 L5.57489 13.98776 L5.43013 13.98052 L5.28799 14.00233 L5.15442 14.05333 L5.03533 14.13364 L4.96152 14.21957 L4.89886 14.31195 L4.84807 14.41012 L4.80983 14.51347 L4.74037 14.59736 L4.65064 14.61273 L4.39516 14.54042 L4.31983 14.46749 L4.30963 14.35898 L4.33639 14.25209 L4.34989 14.14241 L4.35026 14.03080 L4.33761 13.91813 L4.28456 13.78466 L4.20301 13.66721 L4.09793 13.56905 L3.97430 13.49339 L3.83812 13.44373 L3.69588 13.42260 L3.55321 13.43189 L3.41572 13.47347 L3.31982 13.53378 L3.23269 13.60354 L3.15517 13.68234 L3.08813 13.76979 L2.99700 13.82943 L2.90187 13.81699 L2.67988 13.66298 L2.63590 13.58292 L2.65815 13.47623 L2.71523 13.38198 L2.76046 13.28116 L2.79371 13.17461 L2.81484 13.06322 L2.80350 12.92004 L2.76020 12.78378 L2.68873 12.65899 L2.59288 12.55026 L2.47741 12.46265 L2.34771 12.40054 L2.20864 12.36735 L2.06501 12.36655 L1.95559 12.39591 L1.85177 12.43688 L1.75446 12.48933 L1.66462 12.55313 L1.55996 12.58325 L1.45850 12.53681 L1.45087 12.52853 L1.31153 12.33887 L1.29273 12.24819 L1.34531 12.15272 L1.42754 12.07938 L1.50038 11.99627 L1.56343 11.90418 L1.61633 11.80390 L1.64751 11.66369 L1.64611 11.52072 L1.61441 11.38046 L1.55470 11.24838 L1.47002 11.13074 L1.36427 11.03329 L1.24106 10.96075 L1.10400 10.91783 L0.99078 10.91378 L0.87950 10.92247 L0.77109 10.94405 L0.66648 10.97868 L0.55758 10.97676 L0.48846 10.91525 L0.38911 10.68814 L0.38667 10.68036 L0.39727 10.56902 L0.47568 10.49331 L0.57588 10.44748 L0.66998 10.38955 L0.75739 10.32016 L0.83751 10.23993 L0.90866 10.11516 L0.94949 9.97813 L0.96057 9.83476 L0.94247 9.69095 L0.89625 9.55357 L0.82395 9.42927 L0.72761 9.32361 L0.60930 9.24217 L0.50231 9.20492 L0.39342 9.18040 L0.28347 9.16905 L0.17330 9.17128 L0.06981 9.13732 L0.02211 9.05850 L0.00001 8.79265 L0.03702 8.70358 L0.13424 8.65431 L0.24349 8.64002 L0.35049 8.61237 L0.45446 8.57179 L0.55465 8.51871 L0.65938 8.42042 L0.73874 8.30149 L0.79155 8.16774 L0.81661 8.02497 L0.81289 7.88008 L0.78039 7.73999 L0.71944 7.61066 L0.63036 7.49799 L0.53908 7.43088 L0.44224 7.37539 L0.34050 7.33216 L0.23456 7.30185 L0.14566 7.23893 L0.12021 7.13727 L0.18580 6.87809 L0.24371 6.80844 L0.35115 6.79010 L0.45975 6.80872 L0.57013 6.81391 L0.68145 6.80586 L0.79285 6.78476 L0.92194 6.72180 L1.03291 6.63163 L1.12287 6.51944 L1.18899 6.39046 L1.22824 6.25093 L1.23859 6.10750 L1.21857 5.96593 L1.16675 5.83197 L1.09937 5.74089 L1.02325 5.65926 L0.93882 5.58791 L0.84656 5.52765 L0.78022 5.44127 L0.78562 5.34250 L0.84652 5.22215 L0.91562 5.11637 L0.99930 5.06182 L1.10737 5.07598 L1.20564 5.12581 L1.30959 5.16333 L1.41833 5.18847 L1.53099 5.20116 L1.67292 5.17907 L1.80554 5.12564 L1.92459 5.04498 L2.02580 4.94123 L2.10447 4.81948 L2.15665 4.68549 L2.17928 4.54431 L2.16927 4.40103 L2.13176 4.29413 L2.08309 4.19368 L2.02347 4.10060 L1.95309 4.01581 L1.91517 3.91371 L1.94672 3.82835 L2.12907 3.65078 L2.22921 3.62201 L2.32836 3.66726 L2.40768 3.74374 L2.49603 3.81011 L2.59261 3.86606 L2.69659 3.91126 L2.83874 3.93180 L2.98120 3.91965 L3.11868 3.87748 L3.24590 3.80801 L3.35683 3.71472 L3.44604 3.60194 L3.50911 3.47362 L3.54160 3.33371 L3.53711 3.22051 L3.52007 3.11020 L3.49040 3.00372 L3.44800 2.90201 L3.44172 2.79328 L3.50018 2.71668 L3.74828 2.59952 L3.83940 2.60135 L3.92076 2.67388 L3.97394 2.77038 L4.03874 2.85989 L4.11448 2.94188 L4.20046 3.01578 L4.33020 3.07740 L4.46989 3.10788 L4.61369 3.10822 L4.75575 3.07943 L4.88929 3.02308 L5.00785 2.94169 L5.10601 2.83774 L5.17838 2.71367 L5.20754 2.60420 L5.22386 2.49378 L5.22696 2.38329 L5.21651 2.27359 L5.24264 2.16786 L5.33316 2.10337 L5.34773 2.10010 L5.58960 2.07316 L5.67735 2.10222 L5.73368 2.19553 L5.75601 2.30342 L5.79150 2.40808 L5.83966 2.50876 L5.90000 2.60475 L6.00577 2.70192 L6.13024 2.77228 L6.26754 2.81504 L6.41176 2.82947 L6.55599 2.81504 L6.69328 2.77228 L6.81776 2.70192 L6.92353 2.60475 L6.98370 2.50876 L7.03188 2.40808 L7.06746 2.30342 L7.08985 2.19553 L7.14602 2.10222 L7.23390 2.07316 L7.47580 2.10010 L7.49036 2.10337 L7.58075 2.16781 L7.60702 2.27359 L7.59651 2.38327 L7.59953 2.49374 L7.61583 2.60415 L7.64514 2.71367 L7.71752 2.83774 L7.81568 2.94169 L7.93424 3.02308 L8.06778 3.07943 L8.20984 3.10822 L8.35364 3.10788 L8.49333 3.07740 L8.62307 3.01578 L8.70889 2.94183 L8.78464 2.85985 L8.84953 2.77036 L8.90277 2.67388 L8.98398 2.60131 L9.07522 2.59951 L9.32333 2.71667 L9.38168 2.79319 L9.37553 2.90201 L9.33309 3.00369 L9.30333 3.11012 L9.28628 3.22042 L9.28193 3.33371 L9.31442 3.47362 L9.37749 3.60194 L9.46670 3.71472 L9.57763 3.80801 L9.70485 3.87748 L9.84233 3.91965 L9.98479 3.93180 L10.12694 3.91126 L10.23078 3.86597 L10.32737 3.81003 L10.41580 3.74370 L10.49517 3.66726 L10.59420 3.62192 L10.69445 3.65077 L10.87679 3.82833 L10.90826 3.91359 L10.87044 4.01581 L10.80002 4.10056 L10.74034 4.19356 L10.69167 4.29400 L10.65426 4.40103 L10.64425 4.54431 L10.66688 4.68549 L10.71906 4.81948 L10.79772 4.94123 L10.89894 5.04498 L11.01799 5.12564 L11.15061 5.17907 L11.29254 5.20116 L11.40510 5.18834 L11.51385 5.16321 L11.61785 5.12576 L11.71616 5.07598 L11.82413 5.06171 L11.90790 5.11635 L11.97701 5.22215 L12.03790 5.34248 L12.04325 5.44113 L11.97697 5.52765 L11.88469 5.58786 L11.80023 5.65912 L11.72410 5.74074 L11.65678 5.83197 L11.60496 5.96593 L11.58494 6.10750 L11.59529 6.25093 L11.63454 6.39046 L11.70066 6.51944 L11.79062 6.63163 L11.90158 6.72180 L12.03068 6.78476 L12.14202 6.80571 L12.25334 6.81377 L12.36376 6.80867 L12.47238 6.79010 L12.57976 6.80830 L12.63773 6.87806 L12.70332 7.13726 L12.67786 7.23878 L12.58897 7.30185 L12.48302 7.33211 L12.38128 7.37524 L12.28443 7.43072 L12.19317 7.49799 L12.10409 7.61066 L12.04314 7.73999 L12.01064 7.88008 L12.00692 8.02497 L12.03198 8.16774 L12.08479 8.30149 L12.16415 8.42042 L12.26888 8.51871 L12.36906 8.57162 L12.47303 8.61222 L12.58003 8.63996 L12.68929 8.65431 L12.78650 8.70343 L12.82352 8.79263 z"/>
<path stroke="#000000" d="M 0.00000 2.01143 L 12.83333 2.01143 L 12.83333 14.86857 L 0.00000 14.86857 z"/>
<path stroke="#000000" d="M 0.34472 16.64927 L 0.45963 16.70672 L 0.63199 16.87908 L 0.63199 15.67256"/>
<path stroke="#000000" d="M 1.37888 16.59181 L 1.37888 16.64927 L 1.43634 16.76417 L 1.49379 16.82163 L 1.60870 16.87908 L 1.83851 16.87908 L 1.95342 16.82163 L 2.01087 16.76417 L 2.06832 16.64927 L 2.06832 16.53436 L 2.01087 16.41945 L 1.89596 16.24709 L 1.32143 15.67256 L 2.12578 15.67256"/>
<path stroke="#000000" d="M 2.58540 15.78746 L 2.52795 15.73001 L 2.58540 15.67256 L 2.64286 15.73001 z"/>
<path stroke="#000000" d="M 3.33230 16.87908 L 3.15994 16.82163 L 3.10248 16.70672 L 3.10248 16.59181 L 3.15994 16.47691 L 3.27484 16.41945 L 3.50466 16.36200 L 3.67702 16.30455 L 3.79193 16.18964 L 3.84938 16.07473 L 3.84938 15.90237 L 3.79193 15.78746 L 3.73447 15.73001 L 3.56211 15.67256 L 3.33230 15.67256 L 3.15994 15.73001 L 3.10248 15.78746 L 3.04503 15.90237 L 3.04503 16.07473 L 3.10248 16.18964 L 3.21739 16.30455 L 3.38975 16.36200 L 3.61957 16.41945 L 3.73447 16.47691 L 3.79193 16.59181 L 3.79193 16.70672 L 3.73447 16.82163 L 3.56211 16.87908 z"/>
<path stroke="#000000" d="M 4.25155 16.59181 L 4.25155 16.64927 L 4.30901 16.76417 L 4.36646 16.82163 L 4.48137 16.87908 L 4.71118 16.87908 L 4.82609 16.82163 L 4.88354 16.76417 L 4.94099 16.64927 L 4.94099 16.53436 L 4.88354 16.41945 L 4.76863 16.24709 L 4.19410 15.67256 L 4.99845 15.67256"/>
<path stroke="#000000" d=""/>
<path stroke="#000000" d="M 6.26242 16.47691 L 6.89441 15.67256 M 6.89441 16.47691 L 6.26242 15.67256"/>
<path stroke="#000000" d=""/>
<path stroke="#000000" d="M 8.33075 16.64927 L 8.44565 16.70672 L 8.61801 16.87908 L 8.61801 15.67256"/>
<path stroke="#000000" d="M 9.36491 16.59181 L 9.36491 16.64927 L 9.42236 16.76417 L 9.47981 16.82163 L 9.59472 16.87908 L 9.82453 16.87908 L 9.93944 16.82163 L 9.99689 16.76417 L 10.05435 16.64927 L 10.05435 16.53436 L 9.99689 16.41945 L 9.88199 16.24709 L 9.30745 15.67256 L 10.11180 15.67256"/>
<path stroke="#000000" d="M 10.57143 15.78746 L 10.51398 15.73001 L 10.57143 15.67256 L 10.62888 15.73001 z"/>
<path stroke="#000000" d="M 11.31832 16.87908 L 11.14596 16.82163 L 11.08851 16.70672 L 11.08851 16.59181 L 11.14596 16.47691 L 11.26087 16.41945 L 11.49068 16.36200 L 11.66304 16.30455 L 11.77795 16.18964 L 11.83540 16.07473 L 11.83540 15.90237 L 11.77795 15.78746 L 11.72050 15.73001 L 11.54814 15.67256 L 11.31832 15.67256 L 11.14596 15.73001 L 11.08851 15.78746 L 11.03106 15.90237 L 11.03106 16.07473 L 11.08851 16.18964 L 11.20342 16.30455 L 11.37578 16.36200 L 11.60559 16.41945 L 11.72050 16.47691 L 11.77795 16.59181 L 11.77795 16.70672 L 11.72050 16.82163 L 11.54814 16.87908 z"/>
<path stroke="#000000" d="M 12.86957 16.87908 L 12.29503 16.87908 L 12.23758 16.36200 L 12.29503 16.41945 L 12.46739 16.47691 L 12.63975 16.47691 L 12.81211 16.41945 L 12.92702 16.30455 L 12.98447 16.13219 L 12.98447 16.01728 L 12.92702 15.84492 L 12.81211 15.73001 L 12.63975 15.67256 L 12.46739 15.67256 L 12.29503 15.73001 L 12.23758 15.78746 L 12.18012 15.90237"/>
</svg>