<?xml version="1.0" encoding="UTF-8"?>
<!-- Generated by jsxcad -->
<!DOCTYPE svg PUBLIC "-//W3C//DTD SVG 1.1 Tiny//EN" "http://www.w3.org/Graphics/SVG/1.1/DTD/svg11-tiny.dtd">
<svg viewBox="-250 -250 500 500" width="500" height="500" xmlns="http://www.w3.org/2000/svg"><path d="M-73.76223082756505,-74.92009733382162L-77.8277347988979,-72.29199737873135L-81.7184271048857,-69.48142764672349zM-4.456427598203963,-108.36171357758772L-9.020898883313361,-106.91814616282119L-13.568915485447182,-105.38305997864221zM-81.7184271048857,-69.48142764672349L-85.54412410715766,-66.60431659456714L-89.30205674343429,-63.66242295467896zM4.709785589928622,-110.96934547798715L-4.456427598203963,-108.36171357758772L-13.568915485447182,-105.38305997864221zM4.709785589928622,-110.96934547798715L0.12148199815886694,-109.712511019666L-4.456427598203963,-108.36171357758772zM-81.7184271048857,-69.48142764672349L-89.30205674343429,-63.66242295467896L-96.60363900908791,-57.59138073662308zM-89.30205674343429,-63.66242295467896L-92.98948259041136,-60.65750600275538L-96.60363900908791,-57.59138073662308zM-57.538635495670206,-70.24401517766049L-73.76223082756505,-74.92009733382162L-81.7184271048857,-69.48142764672349zM-57.538635495670206,-70.24401517766049L-67.97292080697689,-75.60732411155334L-73.76223082756505,-74.92009733382162zM-13.568915485447182,-105.38305997864221L-17.604993857094744,-100.95331573904724L-19.75519273804999,-89.25233888671013zM13.88415453920369,-113.02278983483005L9.305411618540088,-112.13102692566119L4.709785589928622,-110.96934547798715zM4.709785589928622,-110.96934547798715L-13.568915485447182,-105.38305997864221L-19.75519273804999,-89.25233888671013zM-81.7184271048857,-69.48142764672349L-96.60363900908791,-57.59138073662308L-90.49557941461195,-44.79538212264142zM-51.358683543439945,-69.00367002791555L-57.538635495670206,-70.24401517766049L-81.7184271048857,-69.48142764672349zM20.199279592595133,-100.47232316766112L13.88415453920369,-113.02278983483005L4.709785589928622,-110.96934547798715zM-96.60363900908791,-57.59138073662308L-97.41318858238392,-52.981974797145156L-90.49557941461195,-44.79538212264142zM-51.358683543439945,-69.00367002791555L-81.7184271048857,-69.48142764672349L-90.49557941461195,-44.79538212264142zM20.199279592595133,-100.47232316766112L18.00561701585357,-111.0515364181667L13.88415453920369,-113.02278983483005zM23.046326066203935,-96.245298584942L4.709785589928622,-110.96934547798715L-19.75519273804999,-89.25233888671013zM23.046326066203935,-96.245298584942L20.199279592595133,-100.47232316766112L4.709785589928622,-110.96934547798715zM-46.50048706272625,-69.00276059077578L-51.358683543439945,-69.00367002791555L-90.49557941461195,-44.79538212264142zM-42.289961199399556,-69.622147914699L-46.50048706272625,-69.00276059077578L-90.49557941461195,-44.79538212264142zM-38.49301525690637,-70.7029956474936L-42.289961199399556,-69.622147914699L-90.49557941461195,-44.79538212264142zM-34.98477077769378,-72.20105774935719L-38.49301525690637,-70.7029956474936L-90.49557941461195,-44.79538212264142zM35.854988851918925,-91.86863706048777L-19.75519273804999,-89.25233888671013L-22.541397792225577,-83.49969966951764zM-34.98477077769378,-72.20105774935719L-90.49557941461195,-44.79538212264142L-88.92411646093746,-39.93457360390405zM-31.68438059508355,-74.12756210858693L-34.98477077769378,-72.20105774935719L-88.92411646093746,-39.93457360390405zM26.069848859787538,-93.94605003157366L23.046326066203935,-96.245298584942L-19.75519273804999,-89.25233888671013zM39.494792455087044,-92.34492531517853L-22.541397792225577,-83.49969966951764L-25.4923919582441,-79.56988439094339zM-31.68438059508355,-74.12756210858693L-88.92411646093746,-39.93457360390405L-88.96204828192698,-36.10110130916697zM29.195314185940777,-92.60546172826098L26.069848859787538,-93.94605003157366L-19.75519273804999,-89.25233888671013zM39.494792455087044,-92.34492531517853L-25.4923919582441,-79.56988439094339L-28.534014333987393,-76.5411720935983zM39.494792455087044,-92.34492531517853L-28.534014333987393,-76.5411720935983L-31.68438059508355,-74.12756210858693zM32.44239990824626,-91.94751839006197L29.195314185940777,-92.60546172826098L-19.75519273804999,-89.25233888671013zM-31.68438059508355,-74.12756210858693L-88.96204828192698,-36.10110130916697L-89.80882705633046,-32.767299040870675zM35.854988851918925,-91.86863706048777L32.44239990824626,-91.94751839006197L-19.75519273804999,-89.25233888671013zM-31.68438059508355,-74.12756210858693L-89.80882705633046,-32.767299040870675L-91.26109458743191,-29.749890301717322zM39.494792455087044,-92.34492531517853L35.854988851918925,-91.86863706048777L-22.541397792225577,-83.49969966951764zM-116.10899103746574,-14.579241639853683L-131.89376769016192,-12.698023313212936L-137.76325020983026,-9.341016584062405zM-137.76325020983026,-9.341016584062405L-140.16957639382173,-5.6192766674228185L-142.24203956768213,-1.856851516595487zM-116.10899103746574,-14.579241639853683L-137.76325020983026,-9.341016584062405L-142.24203956768213,-1.856851516595487zM76.93045190215197,-117.42055642922723L70.59146077892315,-114.51523431904015L59.47927859703601,-102.85853931002298zM85.41594353265816,-116.31604134608664L81.19829031536793,-116.92342863897629L76.93045190215197,-117.42055642922723zM-108.38080053232079,-16.889943504009597L-116.10899103746574,-14.579241639853683L-142.24203956768213,-1.856851516595487zM-142.24203956768213,-1.856851516595487L-144.19556052255768,1.9287285369364195L-146.0275606698011,5.734709567586782zM93.68575271744393,-114.76869930882438L85.41594353265816,-116.31604134608664L76.93045190215197,-117.42055642922723zM93.68575271744393,-114.76869930882438L76.93045190215197,-117.42055642922723L59.47927859703601,-102.85853931002298zM93.68575271744393,-114.76869930882438L89.57968809980603,-115.59793912513626L85.41594353265816,-116.31604134608664zM-142.24203956768213,-1.856851516595487L-146.0275606698011,5.734709567586782L-149.3169535696708,13.396528753170214zM-31.68438059508355,-74.12756210858693L-91.26109458743191,-29.749890301717322L-120.61471853114436,28.290850054722732zM-146.0275606698011,5.734709567586782L-147.73552009544946,9.558272515955386L-149.3169535696708,13.396528753170214zM-93.26455540010306,-26.950689082464287L-95.83776755822404,-24.30549078055479L-132.01341280012574,18.330800698437052zM-108.38080053232079,-16.889943504009597L-142.24203956768213,-1.856851516595487L-132.01341280012574,18.330800698437052zM-91.26109458743191,-29.749890301717322L-93.26455540010306,-26.950689082464287L-126.30131222606263,20.59105512225446zM-95.83776755822404,-24.30549078055479L-99.06252544314731,-21.76748385374177L-132.01341280012574,18.330800698437052zM-99.06252544314731,-21.76748385374177L-103.11400412282059,-19.301843018155697L-132.01341280012574,18.330800698437052zM-103.11400412282059,-19.301843018155697L-108.38080053232079,-16.889943504009597L-132.01341280012574,18.330800698437052zM101.54638736086872,-112.5940767128437L97.73035393064883,-113.82796279849252L93.68575271744393,-114.76869930882438zM-142.24203956768213,-1.856851516595487L-149.3169535696708,13.396528753170214L-132.01341280012574,18.330800698437052zM100.87467921803614,-77.37611150933601L39.494792455087044,-92.34492531517853L-31.68438059508355,-74.12756210858693zM93.2787910737315,-89.72436927757214L93.68575271744393,-114.76869930882438L59.47927859703601,-102.85853931002298zM94.99820220880072,-95.7325192724447L101.54638736086872,-112.5940767128437L93.68575271744393,-114.76869930882438zM-149.3169535696708,13.396528753170214L-146.4684419725481,16.756952045361817L-132.01341280012574,18.330800698437052zM98.04206923755439,-78.65729544402336L59.47927859703601,-102.85853931002298L52.95274973702654,-97.99936315676251zM-93.26455540010306,-26.950689082464287L-132.01341280012574,18.330800698437052L-126.30131222606263,20.59105512225446zM100.87467921803614,-77.37611150933601L43.4485095483722,-93.41433934519215L39.494792455087044,-92.34492531517853zM100.87467921803614,-77.37611150933601L47.85048996363636,-95.1978440881233L43.4485095483722,-93.41433934519215zM100.87467921803614,-77.37611150933601L52.95274973702654,-97.99936315676251L47.85048996363636,-95.1978440881233zM94.99820220880072,-95.7325192724447L102.60413708575443,-108.41817959890021L101.54638736086872,-112.5940767128437zM-91.26109458743191,-29.749890301717322L-126.30131222606263,20.59105512225446L-123.22442231756484,23.043528052132555zM93.2787910737315,-89.72436927757214L94.99820220880072,-95.7325192724447L93.68575271744393,-114.76869930882438zM-91.26109458743191,-29.749890301717322L-123.22442231756484,23.043528052132555L-121.45430372012501,25.60616904237956zM93.32136403689422,-85.73680441141303L93.2787910737315,-89.72436927757214L59.47927859703601,-102.85853931002298zM100.87467921803614,-77.37611150933601L-31.68438059508355,-74.12756210858693L-120.61471853114436,28.290850054722732zM-91.26109458743191,-29.749890301717322L-121.45430372012501,25.60616904237956L-120.61471853114436,28.290850054722732zM94.24921055258032,-82.74187536884719L93.32136403689422,-85.73680441141303L59.47927859703601,-102.85853931002298zM95.84166418809494,-80.42707402504932L94.24921055258032,-82.74187536884719L59.47927859703601,-102.85853931002298zM98.04206923755439,-78.65729544402336L95.84166418809494,-80.42707402504932L59.47927859703601,-102.85853931002298zM100.87467921803614,-77.37611150933601L98.04206923755439,-78.65729544402336L52.95274973702654,-97.99936315676251zM-136.13155079812097,51.38010160055954L-152.6380975632202,61.31751398990892L-156.62784374852734,66.78225337032697zM-120.61471853114436,28.290850054722732L-120.56635903378277,31.13379280744795L-118.60724468936598,79.7526136761037zM-129.2859851189719,45.68066263427999L-136.13155079812097,51.38010160055954L-155.57586873563216,74.1852109399249zM-120.56635903378277,31.13379280744795L-121.27990156591893,34.188569397165246L-126.97876584439969,81.52211007901612zM148.3582133507215,-86.34434157006433L141.36877263034833,-86.28969246133208L123.45355023176978,-78.9508041582917zM-136.13155079812097,51.38010160055954L-156.62784374852734,66.78225337032697L-155.57586873563216,74.1852109399249zM-121.27990156591893,34.188569397165246L-122.81218127625839,37.532292661644306L-126.97876584439969,81.52211007901612zM-122.81218127625839,37.532292661644306L-125.33684750086857,41.28633105385248L-126.97876584439969,81.52211007901612zM-156.62784374852734,66.78225337032697L-156.313028575425,70.56034883823206L-155.57586873563216,74.1852109399249zM-125.33684750086857,41.28633105385248L-129.2859851189719,45.68066263427999L-126.97876584439969,81.52211007901612zM157.67075167177038,-74.91470015281251L148.3582133507215,-86.34434157006433L123.45355023176978,-78.9508041582917zM153.27973071224463,-80.83345016277417L150.88336077754644,-83.64066547147733L148.3582133507215,-86.34434157006433zM129.30339817418601,-30.119716853129898L104.43499392446635,-76.58264668161722L100.87467921803614,-77.37611150933601zM-129.2859851189719,45.68066263427999L-155.57586873563216,74.1852109399249L-126.97876584439969,81.52211007901612zM129.30339817418601,-30.119716853129898L108.92481046818888,-76.34383528986056L104.43499392446635,-76.58264668161722zM157.67075167177038,-74.91470015281251L153.27973071224463,-80.83345016277417L148.3582133507215,-86.34434157006433zM-155.57586873563216,74.1852109399249L-154.67957527097298,77.76534652441168L-153.6231525723349,81.29672104222647zM129.30339817418601,-30.119716853129898L114.78960327484543,-76.87012787251567L108.92481046818888,-76.34383528986056zM128.49533792500623,-32.96617406993903L123.45355023176978,-78.9508041582917L114.78960327484543,-76.87012787251567zM-120.56635903378277,31.13379280744795L-126.97876584439969,81.52211007901612L-118.60724468936598,79.7526136761037zM-120.61471853114436,28.290850054722732L-118.60724468936598,79.7526136761037L-113.0946333757583,79.60184443974708zM157.67075167177038,-74.91470015281251L155.5434652514092,-77.92423376775571L153.27973071224463,-80.83345016277417zM-155.57586873563216,74.1852109399249L-153.6231525723349,81.29672104222647L-151.02677044836122,88.19681882144305zM-120.61471853114436,28.290850054722732L-113.0946333757583,79.60184443974708L-108.97768975087034,80.25913926686273zM134.99716541170915,-47.459344737014526L157.67075167177038,-74.91470015281251L123.45355023176978,-78.9508041582917zM-120.61471853114436,28.290850054722732L-108.97768975087034,80.25913926686273L-105.81207105360289,81.51900659960128zM-153.6231525723349,81.29672104222647L-152.40578536934026,84.77525238375729L-151.02677044836122,88.19681882144305zM-155.57586873563216,74.1852109399249L-151.02677044836122,88.19681882144305L-126.97876584439969,81.52211007901612zM-120.61471853114436,28.290850054722732L-45.5558628427561,107.35227052806017L100.87467921803614,-77.37611150933601zM161.22187761625818,-68.48337332804344L159.6578420582673,-71.80667937273837L157.67075167177038,-74.91470015281251zM131.50304419570367,-43.08431030403927L134.99716541170915,-47.459344737014526L123.45355023176978,-78.9508041582917zM129.49832565587786,-39.34848995530539L131.50304419570367,-43.08431030403927L123.45355023176978,-78.9508041582917zM141.51467880021494,-53.16645963545367L161.22187761625818,-68.48337332804344L157.67075167177038,-74.91470015281251zM-151.02677044836122,88.19681882144305L-144.9052238510435,88.75653924669824L-126.97876584439969,81.52211007901612zM128.54919856393377,-36.016650268525446L129.49832565587786,-39.34848995530539L123.45355023176978,-78.9508041582917zM128.49533792500623,-32.96617406993903L128.54919856393377,-36.016650268525446L123.45355023176978,-78.9508041582917zM134.99716541170915,-47.459344737014526L141.51467880021494,-53.16645963545367L157.67075167177038,-74.91470015281251zM129.30339817418601,-30.119716853129898L128.49533792500623,-32.96617406993903L114.78960327484543,-76.87012787251567zM141.51467880021494,-53.16645963545367L158.18628244910042,-63.29457364498932L161.22187761625818,-68.48337332804344zM-120.61471853114436,28.290850054722732L-105.81207105360289,81.51900659960128L-45.5558628427561,107.35227052806017zM107.36233100681314,35.05281848207781L129.30339817418601,-30.119716853129898L100.87467921803614,-77.37611150933601zM-105.81207105360289,81.51900659960128L-103.40590337880452,83.3271154287668L-61.00570948766966,113.59446057052601zM-103.40590337880452,83.3271154287668L-101.6790885063962,85.70361487275498L-68.79079642481646,119.61825004211768zM-45.5558628427561,107.35227052806017L107.36233100681314,35.05281848207781L100.87467921803614,-77.37611150933601zM-101.6790885063962,85.70361487275498L-100.63036714347193,88.7340478113348L-68.79079642481646,119.61825004211768zM-100.63036714347193,88.7340478113348L-100.3545534850698,92.60148186809649L-68.79079642481646,119.61825004211768zM107.36233100681314,35.05281848207781L131.0398066307869,-27.42396022334812L129.30339817418601,-30.119716853129898zM-100.3545534850698,92.60148186809649L-101.14981323260766,97.7125524807647L-68.79079642481646,119.61825004211768zM-101.14981323260766,97.7125524807647L-104.13530865700298,105.37275956766716L-107.15788585274015,131.7782772960976zM107.36233100681314,35.05281848207781L133.90643276526953,-24.84397489448839L131.0398066307869,-27.42396022334812zM-104.13530865700298,105.37275956766716L-114.62068386255254,121.5665010231808L-114.60110798625186,127.53747071803976zM107.36233100681314,35.05281848207781L138.40534063307777,-22.373200440463446L133.90643276526953,-24.84397489448839zM-105.81207105360289,81.51900659960128L-61.00570948766966,113.59446057052601L-55.077727716724205,110.30837600209591zM-105.81207105360289,81.51900659960128L-55.077727716724205,110.30837600209591L-50.0376979861762,108.36061331643536zM109.2779406030193,31.643008596143794L146.24799408295354,-20.121972638208L138.40534063307777,-22.373200440463446zM-105.81207105360289,81.51900659960128L-50.0376979861762,108.36061331643536L-45.5558628427561,107.35227052806017zM170.07311499283486,-15.084860871160725L165.3937483751626,-18.741913727147455L146.24799408295354,-20.121972638208zM-103.40590337880452,83.3271154287668L-68.79079642481646,119.61825004211768L-61.00570948766966,113.59446057052601zM-104.13530865700298,105.37275956766716L-114.60110798625186,127.53747071803976L-107.15788585274015,131.7782772960976zM-101.14981323260766,97.7125524807647L-107.15788585274015,131.7782772960976L-68.79079642481646,119.61825004211768zM166.55269032491364,2.3204065852692723L170.07311499283486,-15.084860871160725L146.24799408295354,-20.121972638208zM-114.60110798625186,127.53747071803976L-111.05635369991786,129.8353256914067L-107.15788585274015,131.7782772960976zM120.0929155355182,22.574718293536016L126.29608167756936,19.785684341003304L146.24799408295354,-20.121972638208zM115.48376514897265,25.460889443179138L120.0929155355182,22.574718293536016L146.24799408295354,-20.121972638208zM111.953355847328,28.467796981794915L115.48376514897265,25.460889443179138L146.24799408295354,-20.121972638208zM107.36233100681314,35.05281848207781L109.2779406030193,31.643008596143794L138.40534063307777,-22.373200440463446zM126.29608167756936,19.785684341003304L166.55269032491364,2.3204065852692723L146.24799408295354,-20.121972638208zM109.2779406030193,31.643008596143794L111.953355847328,28.467796981794915L146.24799408295354,-20.121972638208zM168.83996602379239,-6.470064030464264L169.70440999564275,-10.812250082097663L170.07311499283486,-15.084860871160725zM166.55269032491364,2.3204065852692723L168.83996602379239,-6.470064030464264L170.07311499283486,-15.084860871160725zM-107.15788585274015,131.7782772960976L-103.1179039299121,133.59489299947643L-98.9398233557955,135.2816493625939zM-107.15788585274015,131.7782772960976L-90.18449529026854,138.25208500751094L-68.79079642481646,119.61825004211768zM166.55269032491364,2.3204065852692723L167.7896030103185,-2.090847963623186L168.83996602379239,-6.470064030464264zM-107.15788585274015,131.7782772960976L-98.9398233557955,135.2816493625939L-90.18449529026854,138.25208500751094zM126.29608167756936,19.785684341003304L135.7857057736821,17.1629118273892L166.55269032491364,2.3204065852692723zM-98.9398233557955,135.2816493625939L-94.62735989868021,136.83514484023587L-90.18449529026854,138.25208500751094zM-90.18449529026854,138.25208500751094L-82.79595810971709,134.94389688495826L-68.79079642481646,119.61825004211768zM135.7857057736821,17.1629118273892L163.5180853324855,11.218350604063271L166.55269032491364,2.3204065852692723zM163.5180853324855,11.218350604063271L165.128876185474,6.75856416473991L166.55269032491364,2.3204065852692723zM135.7857057736821,17.1629118273892L156.39193051902785,15.179087376465747L163.5180853324855,11.218350604063271zM-45.5558628427561,107.35227052806017L38.6576547858481,89.89255485213702L107.36233100681314,35.05281848207781zM-45.5558628427561,107.35227052806017L-41.46000557540384,107.13286763163434L27.89021758212242,102.34837503789467zM-41.46000557540384,107.13286763163434L-37.6410450195085,107.66642213610487L27.89021758212242,102.34837503789467zM38.6576547858481,89.89255485213702L106.20107729414917,38.79090040392038L107.36233100681314,35.05281848207781zM-37.6410450195085,107.66642213610487L-34.022848907600256,109.00564355783679L27.89021758212242,102.34837503789467zM38.6576547858481,89.89255485213702L105.8967501629802,43.00403845425759L106.20107729414917,38.79090040392038zM-34.022848907600256,109.00564355783679L-30.553297487329463,111.32226865824282L27.89021758212242,102.34837503789467zM-45.5558628427561,107.35227052806017L34.90783553033534,92.98564546583862L38.6576547858481,89.89255485213702zM-45.5558628427561,107.35227052806017L31.32514034690317,96.98938161476372L34.90783553033534,92.98564546583862zM38.6576547858481,89.89255485213702L106.77906439225445,47.970988133164L105.8967501629802,43.00403845425759zM-30.553297487329463,111.32226865824282L-27.215085754566488,115.05067775425917L27.89021758212242,102.34837503789467zM-45.5558628427561,107.35227052806017L27.89021758212242,102.34837503789467L31.32514034690317,96.98938161476372zM38.6576547858481,89.89255485213702L42.630627259686946,87.51397686789312L106.77906439225445,47.970988133164zM42.630627259686946,87.51397686789312L110.09464710124006,54.501272840672605L106.77906439225445,47.970988133164zM42.630627259686946,87.51397686789312L46.90892590937733,85.7626201544221L110.09464710124006,54.501272840672605zM46.90892590937733,85.7626201544221L51.610958267661374,84.62564377513534L110.09464710124006,54.501272840672605zM51.610958267661374,84.62564377513534L56.92441659297489,84.17750373966675L110.09464710124006,54.501272840672605zM56.92441659297489,84.17750373966675L63.20919824219109,84.67357509220254L110.09464710124006,54.501272840672605zM-27.215085754566488,115.05067775425917L-24.13301724865245,121.68435907010209L-5.64495362202453,140.40336760702897zM-27.215085754566488,115.05067775425917L-5.64495362202453,140.40336760702897L27.89021758212242,102.34837503789467zM-24.13301724865245,121.68435907010209L-22.08399100188172,138.23955990566319L-17.16128752025761,142.3525352612729zM63.20919824219109,84.67357509220254L104.34351698353794,88.61329197365787L110.09464710124006,54.501272840672605zM121.79817980521597,72.58481445365342L121.81847967305978,66.24523436404046L110.09464710124006,54.501272840672605zM-5.64495362202453,140.40336760702897L24.729891769979098,110.51019436675841L27.89021758212242,102.34837503789467zM-24.13301724865245,121.68435907010209L-17.16128752025761,142.3525352612729L-5.64495362202453,140.40336760702897zM63.20919824219109,84.67357509220254L71.52125155175015,87.09802442618903L104.34351698353794,88.61329197365787zM104.34351698353794,88.61329197365787L121.79817980521597,72.58481445365342L110.09464710124006,54.501272840672605zM-5.64495362202453,140.40336760702897L17.584517594945595,134.33000371575503L24.729891769979098,110.51019436675841zM17.584517594945595,134.33000371575503L22.63744487713386,128.20167695899093L24.729891769979098,110.51019436675841zM-17.16128752025761,142.3525352612729L-11.419296957613133,141.45843333131864L-5.64495362202453,140.40336760702897zM71.52125155175015,87.09802442618903L86.64359363936217,96.18914331129098L94.70847921363807,96.03841635335412zM71.52125155175015,87.09802442618903L94.70847921363807,96.03841635335412L104.34351698353794,88.61329197365787zM113.467213317812,80.82685192400693L117.82263733980663,76.8123789955486L121.79817980521597,72.58481445365342zM104.34351698353794,88.61329197365787L113.467213317812,80.82685192400693L121.79817980521597,72.58481445365342zM-5.64495362202453,140.40336760702897L0.15394581107220148,139.18799887181973L5.969492341104273,137.81329603275634zM-5.64495362202453,140.40336760702897L5.969492341104273,137.81329603275634L17.584517594945595,134.33000371575503zM104.34351698353794,88.61329197365787L108.97229117900284,84.76241399605803L113.467213317812,80.82685192400693zM5.969492341104273,137.81329603275634L11.79368612639079,136.28048447693868L17.584517594945595,134.33000371575503zM94.70847921363807,96.03841635335412L99.58684421316883,92.3738076232271L104.34351698353794,88.61329197365787z" style="fill:rgb(83,212,212)"/></svg>
