<?xml version="1.0" encoding="UTF-8"?>
<!-- Generated by jsxcad -->
<!DOCTYPE svg PUBLIC "-//W3C//DTD SVG 1.1 Tiny//EN" "http://www.w3.org/Graphics/SVG/1.1/DTD/svg11-tiny.dtd">
<svg baseProfile="tiny" height="10.000000000000007mm" width="9.991889981715705mm" viewBox="-4.995944990857852 -5.0000000000000036 4.995944990857852 5.0000000000000036" version="1.1" stroke="black" stroke-width=".1" fill="none" xmlns="http://www.w3.org/2000/svg">
<path fill="#000000" stroke="#000000" d="M-0.8020564042888116 14.93525131318957 L-0.40233284358363736 14.983786540671057 L3.061616997868383e-16 15.000000000000007 L0.402332843583629 14.983786540671057 L0.8020564042888012 14.935251313189571 L1.196578321437788 14.854709087130267 L1.5833399690073622 14.742682209735735 L1.9598330493003744 14.599897218294128 L2.323615860218842 14.427280128266057 L2.672329130639004 14.225950427718981 L3.0037113211898934 13.997213817017514 L3.3156132912039746 13.742553740855513 L3.6060122367190717 13.463621767548004 L3.873024809138271 13.162226877976895 L4.114919329468281 12.840323733655786 L4.330127018922192 12.500000000000009 L4.517252173051911 12.143462807015279 L4.675081213427073 11.773024435212687 L4.802590558156861 11.391087319582272 L4.8989532602113375 11.00012846888023 L4.96354437049027 10.602683401276625 L4.995944990857848 10.201329700547085 L4.995944990857849 9.798670299452933 L4.96354437049027 9.397316598723394 L4.898953260211339 8.999871531119787 L4.802590558156862 8.608912680417747 L4.675081213427076 8.226975564787331 L4.517252173051912 7.85653719298474 L4.330127018922195 7.50000000000001 L4.114919329468284 7.159676266344232 L3.8730248091382755 6.837773122023124 L3.606012236719076 6.536378232452013 L3.315613291203979 6.257446259144504 L3.0037113211898987 6.002786182982504 L2.6723291306390093 5.7740495722810365 L2.323615860218848 5.572719871733961 L1.9598330493003804 5.400102781705888 L1.5833399690073673 5.257317790264281 L1.1965783214377945 5.145290912869748 L0.8020564042888066 5.064748686810443 L0.40233284358363564 5.016213459328958 L6.967499847537777e-15 5.000000000000007 L-0.40233284358362287 5.016213459328957 L-0.8020564042887951 5.064748686810442 L-1.196578321437782 5.145290912869745 L-1.5833399690073553 5.257317790264277 L-1.9598330493003677 5.400102781705883 L-2.323615860218837 5.5727198717339546 L-2.672329130638998 5.7740495722810286 L-3.003711321189888 6.002786182982496 L-3.3156132912039697 6.257446259144496 L-3.6060122367190672 6.536378232452004 L-3.8730248091382684 6.837773122023115 L-4.114919329468277 7.159676266344221 L-4.330127018922189 7.499999999999999 L-4.517252173051908 7.856537192984729 L-4.675081213427071 8.22697556478732 L-4.802590558156859 8.608912680417733 L-4.898953260211337 8.999871531119775 L-4.963544370490268 9.39731659872338 L-4.995944990857848 9.798670299452922 L-4.995944990857849 10.201329700547074 L-4.963544370490271 10.602683401276611 L-4.898953260211341 11.000128468880218 L-4.802590558156864 11.391087319582258 L-4.675081213427078 11.773024435212674 L-4.517252173051916 12.143462807015268 L-4.330127018922197 12.5 L-4.114919329468288 12.840323733655778 L-3.873024809138279 13.162226877976885 L-3.6060122367190806 13.463621767547995 L-3.3156132912039844 13.742553740855504 L-3.003711321189905 13.997213817017505 L-2.672329130639018 14.225950427718972 L-2.3236158602188532 14.42728012826605 L-1.959833049300384 14.599897218294124 L-1.5833399690073733 14.742682209735731 L-1.1965783214378016 14.854709087130264 z"/>
</svg>