<?xml version="1.0" encoding="UTF-8"?>
<!-- Generated by jsxcad -->
<!DOCTYPE svg PUBLIC "-//W3C//DTD SVG 1.1 Tiny//EN" "http://www.w3.org/Graphics/SVG/1.1/DTD/svg11-tiny.dtd">
<svg baseProfile="tiny" height="5.711812488606162mm" width="5.858197723675818mm" viewBox="0 0 5.858197723675818 5.711812488606162" version="1.1" stroke="black" stroke-width=".1" fill="none" xmlns="http://www.w3.org/2000/svg">
<path fill="#000000" stroke="#000000" d="M5.85242 3.03983 L5.85675 2.94791 L5.8582 2.85591 L5.85675 2.7639 L5.85242 2.67199 L5.83979 2.58076 L5.73971 2.50084 L5.38668 2.46666 L5.23193 2.41662 L5.13679 2.36243 L5.07101 2.30596 L5.02559 2.24682 L4.99679 2.18407 L4.98321 2.11638 L4.9852 2.04184 L5.00521 1.95749 L5.05034 1.85773 L5.14611 1.72628 L5.41163 1.49112 L5.4503 1.36487 L5.40222 1.28642 L5.3517 1.20951 L5.29879 1.13423 L5.24354 1.06064 L5.18601 0.98883 L5.12217 0.92245 L4.99423 0.91662 L4.68853 1.09647 L4.53392 1.14694 L4.4251 1.15903 L4.33869 1.152 L4.26719 1.13085 L4.207 1.09702 L4.15623 1.05024 L4.11402 0.98877 L4.08064 0.90876 L4.0585 0.80153 L4.05872 0.63889 L4.13531 0.29258 L4.09238 0.16771 L4.00737 0.1325 L3.9213 0.09997 L3.83424 0.07017 L3.74629 0.04311 L3.65754 0.01883 L3.56688 0.00265 L3.45994 0.07314 L3.31834 0.39833 L3.22292 0.53003 L3.14199 0.60378 L3.06795 0.64888 L2.99767 0.6738 L2.9291 0.68181 L2.86052 0.6738 L2.79024 0.64888 L2.71621 0.60378 L2.63527 0.53003 L2.53986 0.39833 L2.39826 0.07314 L2.29132 0.00265 L2.20066 0.01883 L2.11191 0.04311 L2.02396 0.07017 L1.9369 0.09997 L1.85083 0.1325 L1.76581 0.16771 L1.72289 0.29258 L1.79947 0.63889 L1.7997 0.80153 L1.77756 0.90876 L1.74418 0.98877 L1.70197 1.05024 L1.6512 1.09702 L1.59101 1.13085 L1.51951 1.152 L1.4331 1.15903 L1.32427 1.14694 L1.16967 1.09647 L0.86397 0.91662 L0.73602 0.92245 L0.67219 0.98883 L0.61466 1.06064 L0.55941 1.13423 L0.5065 1.20951 L0.45598 1.28642 L0.4079 1.36487 L0.44657 1.49112 L0.71208 1.72628 L0.80786 1.85773 L0.85298 1.95749 L0.873 2.04184 L0.87498 2.11638 L0.86141 2.18407 L0.8326 2.24682 L0.78719 2.30596 L0.72141 2.36243 L0.62627 2.41662 L0.47152 2.46666 L0.11849 2.50084 L0.01841 2.58076 L0.00578 2.67199 L0.00145 2.7639 L0 2.85591 L0.00145 2.94791 L0.00578 3.03983 L0.013 3.13156 L0.11849 3.21097 L0.47152 3.24515 L0.62627 3.2952 L0.72141 3.34938 L0.78719 3.40586 L0.8326 3.46499 L0.86141 3.52774 L0.87498 3.59543 L0.873 3.66997 L0.85298 3.75432 L0.80786 3.85409 L0.71208 3.98553 L0.44657 4.22069 L0.41258 4.34417 L0.45598 4.4254 L0.5065 4.5023 L0.55941 4.57759 L0.61466 4.65117 L0.67219 4.72298 L0.73195 4.79295 L0.86397 4.79519 L1.16967 4.61534 L1.32427 4.56487 L1.4331 4.55278 L1.51951 4.55981 L1.59101 4.58096 L1.6512 4.61479 L1.70197 4.66157 L1.74418 4.72304 L1.77756 4.80305 L1.7997 4.91028 L1.79947 5.07292 L1.72289 5.41924 L1.76797 5.53912 L1.85083 5.57931 L1.9369 5.61184 L2.02396 5.64164 L2.11191 5.6687 L2.20066 5.69298 L2.29014 5.71446 L2.39826 5.63868 L2.53986 5.31349 L2.63527 5.18178 L2.71621 5.10803 L2.79024 5.06293 L2.86052 5.03801 L2.9291 5.03001 L2.99767 5.03801 L3.06795 5.06293 L3.14199 5.10803 L3.22292 5.18178 L3.31834 5.31349 L3.45994 5.63868 L3.56688 5.70916 L3.65754 5.69298 L3.74629 5.6687 L3.83424 5.64164 L3.9213 5.61184 L4.00737 5.57931 L4.09238 5.5441 L4.13531 5.41924 L4.05872 5.07292 L4.0585 4.91028 L4.08064 4.80305 L4.11402 4.72304 L4.15623 4.66157 L4.207 4.61479 L4.26719 4.58096 L4.33869 4.55981 L4.4251 4.55278 L4.53392 4.56487 L4.68853 4.61534 L4.99423 4.79519 L5.12217 4.78936 L5.18601 4.72298 L5.24354 4.65117 L5.29879 4.57759 L5.3517 4.5023 L5.40222 4.4254 L5.4503 4.34694 L5.41163 4.22069 L5.14611 3.98553 L5.05034 3.85409 L5.00521 3.75432 L4.9852 3.66997 L4.98321 3.59543 L4.99679 3.52774 L5.02559 3.46499 L5.07101 3.40586 L5.13679 3.34938 L5.23193 3.2952 L5.38668 3.24515 L5.73971 3.21097 L5.8452 3.13156 z"/>
</svg>